<svg width="1424" height="752" viewBox="0 0 1424 752" fill="none" xmlns="http://www.w3.org/2000/svg">
<path fill-rule="evenodd" clip-rule="evenodd" d="M0 376V752H712H1424V376V0H712H0V376ZM703.977 188.5C708.865 197.85 715.804 210.894 719.395 217.487C722.987 224.08 725.605 229.749 725.213 230.085C724.821 230.42 715.5 232.817 704.5 235.41C693.5 238.003 678.003 241.662 670.061 243.541C662.12 245.419 655.49 246.824 655.329 246.662C655.168 246.501 656.547 243.215 658.395 239.36C663.748 228.189 663.772 228.701 657.764 225.774C645.743 219.92 627.714 216.275 616.111 217.353C595.864 219.235 585.086 227.967 586.215 241.575C587.057 251.732 593.425 256.419 615 262.764C658.513 275.56 668.379 279.239 678.425 286.412C690.011 294.685 696.295 303.085 700.497 315.916C702.269 321.327 702.272 321.329 703.622 318.752C705.963 314.284 716 288.145 716 286.516C716 285.66 717.023 283.282 718.273 281.23C719.523 279.179 721.052 276.375 721.671 275C731.013 254.252 738.977 235.677 760.582 184.25L764.468 175L786.984 175.018L809.5 175.036L815.918 190.268C826.222 214.726 841.763 249.235 843.67 251.893C844.258 252.711 847.169 249.5 854.442 240.012L861.957 230.208L856.478 226.071C853.465 223.797 851 221.575 851 221.135C851 220.695 852.462 219.85 854.25 219.257C856.038 218.664 863.974 215.65 871.887 212.559C879.8 209.469 886.503 207.169 886.782 207.449C887.275 207.942 883.066 245.142 882.436 245.855C882.264 246.05 879.558 244.121 876.424 241.568C873.289 239.014 870.36 237.054 869.914 237.213C868.351 237.767 852 261.294 852 262.989C852 263.931 853.197 266.907 854.659 269.601C859.811 279.092 860.811 281.547 861.54 286.5C861.944 289.25 863.284 294.65 864.517 298.5C867.321 307.257 885.044 349.218 904.608 393.423C907.024 398.881 909 403.718 909 404.173C909 404.628 896.962 404.993 882.25 404.985L855.5 404.971L849.588 390.735C846.336 382.906 841.883 372.558 839.691 367.741L835.707 358.981L786.616 359.241L737.525 359.5L728.048 382.25L718.572 405H695.208H671.843L678.554 400.5C684.229 396.694 686.02 396 690.157 396C694.579 396 695.148 395.735 696.077 393.25C697.745 388.782 707.726 364.602 714.252 349.213C717.585 341.355 720.79 334.63 721.375 334.268C721.96 333.907 730.362 333.708 740.046 333.826C756.426 334.026 757.777 333.904 759.43 332.077C762.01 329.226 766.566 328.486 769.541 330.435C772.907 332.64 773.047 339.153 769.777 341.443C766.5 343.739 762.69 343.363 759.979 340.477L757.609 337.954L740.756 338.227L723.903 338.5L718.066 352.5C714.855 360.2 709.661 372.35 706.524 379.5C698.561 397.646 698.648 396.164 705.569 395.804L711.4 395.5L715.27 386.5C717.398 381.55 721.611 371.425 724.632 364C727.653 356.575 730.434 350.191 730.812 349.814C731.865 348.764 841.966 348.55 842.895 349.596C843.337 350.093 847.864 360.4 852.955 372.5C858.046 384.6 862.324 394.623 862.463 394.774C863.113 395.482 892.931 395.92 893.359 395.229C893.77 394.563 880.756 364.533 854.688 306C851.626 299.125 848.28 292.6 847.252 291.5C845.292 289.402 841 280.788 841 278.952C841 277.024 839.226 278.905 831.029 289.523C826.581 295.285 822.749 300 822.515 300C822.28 300 820.289 296.962 818.089 293.25C815.889 289.538 813.172 285.15 812.051 283.5C810.93 281.85 810.01 280.163 810.007 279.75C810.003 279.337 812.046 279 814.548 279H819.095L818.798 272.75L818.5 266.5L811.615 266.201L804.73 265.902L795.994 274.451C791.189 279.153 786.852 283 786.357 283C785.861 283 781.651 279.175 777 274.5L768.544 266H761.272H754V276C754 285.232 753.851 286 752.059 286C750.991 286 749.842 285.553 749.504 285.007C748.257 282.99 748.893 261.685 750.226 260.839C750.927 260.395 755.315 260.024 759.978 260.015L768.456 260L776.228 252.273C783.965 244.582 784 244.523 784 239.273C784 234.493 783.789 233.993 781.75 233.926C778.035 233.803 774.599 232.999 773.625 232.025C773.12 231.52 772.661 225.894 772.604 219.521C772.521 210.231 772.797 207.746 774 206.983C776.249 205.555 797.34 205.74 798.8 207.2C800.455 208.855 800.455 231.145 798.8 232.8C798.14 233.46 795.665 234 793.3 234H789V239.273C789 244.523 789.036 244.582 796.75 252.239L804.5 259.931L814 260.215L823.5 260.5L824 270L824.5 279.5L830.362 271.762L836.224 264.024L829.15 247.762C825.259 238.818 817.662 221.218 812.268 208.651C806.874 196.084 802.132 185.846 801.73 185.901C801.329 185.955 794.297 186 786.105 186H771.21L767.662 194.75C765.711 199.563 758.709 216.433 752.103 232.24C744.855 249.583 739.66 263.463 739.004 267.24C738.406 270.683 737.642 274.175 737.307 275C736.596 276.75 736.547 276.913 734.688 283.578C733.218 288.848 731.3 292.391 727.153 297.492C725.816 299.138 723.872 302.288 722.835 304.492C721.798 306.697 720.281 309.625 719.464 311C716.965 315.204 705.928 340.936 702.343 350.918C697.216 365.193 693.305 372.378 686.8 379.477C670.943 396.782 648.421 405.338 619 405.233C597.838 405.158 577.682 400.94 563.046 393.523C560.307 392.136 557.896 391 557.689 391C557.481 391 555.328 395.725 552.905 401.5C550.483 407.275 548.275 411.99 548 411.978C547.725 411.966 543.953 405.554 539.619 397.728C535.284 389.903 529.604 379.675 526.997 375C518.619 359.979 513.572 350.095 514.042 349.63C514.679 348.999 579.65 333 581.573 333C583.296 333 582.909 335.216 580.289 340.364C579.487 341.939 578.226 344.942 577.487 347.037L576.143 350.847L580.409 352.852C586.894 355.901 601.326 359.836 610.495 361.056C626.902 363.239 643.723 358.506 649.91 349.966C655.745 341.911 655.329 332.482 648.829 325.43C643.901 320.084 636.031 316.861 612.205 310.434C577.946 301.193 566.393 296.109 554.801 285.174C543.379 274.399 538.669 264.551 537.022 248C535.683 234.54 537.238 225.317 542.664 214.536C548.078 203.781 551.964 198.805 560.456 191.756C563.939 188.865 567.004 185.769 567.268 184.875C567.83 182.969 579.921 173.083 581.75 173.034C583.447 172.988 583.321 174.581 581.396 177.519L579.792 179.967L584.646 178.455C613.312 169.525 636.723 170.268 667.68 181.09C672.531 182.786 677.497 184.809 678.715 185.587C679.933 186.364 681.398 187 681.971 187C682.544 187 685.144 182.711 687.748 177.469C691.973 168.962 692.622 168.13 693.786 169.719C694.503 170.699 699.089 179.15 703.977 188.5ZM606 183.648C586.487 187.466 571.099 195.619 565.849 204.921C562.07 211.617 560.584 213.161 558.639 212.415C557.617 212.023 556.25 213.228 554.409 216.143C545.859 229.687 544.813 250.763 551.985 264.97C560.152 281.15 575.398 290.291 608.929 299.113C647.383 309.231 657.187 314.491 662.342 327.77C666.217 337.752 663.225 351.795 655.66 359.135C639.178 375.123 608.35 375.802 574.5 360.923C561.99 355.424 562.571 355.968 564.621 351.668C565.577 349.664 566.07 347.737 565.718 347.385C564.993 346.66 530.979 354.839 529.622 356.064C528.41 357.158 545.178 390 546.948 390C547.379 390 548.715 387.304 549.917 384.008L552.102 378.016L555.301 379.414C557.06 380.183 562.1 382.399 566.5 384.339C582.03 391.187 604.009 396 619.747 396C633.799 396 651.533 391.541 664.245 384.811C672.241 380.578 682.57 370.257 686.792 362.281C694.638 347.46 694.981 325.679 687.597 311.233C679.774 295.929 666.303 288.191 628.837 277.481C597.037 268.391 586.582 263.682 580.741 255.818C577.252 251.121 575.999 246.692 576.01 239.101C576.054 209.522 618.094 197.541 659.536 215.298C676.82 222.703 677.454 223.287 674.474 229.05C673.635 230.672 673.298 232.01 673.724 232.022C676.115 232.091 710 223.433 710 222.753C710 221.854 697.643 197.219 694.867 192.585L693.121 189.67L690.617 195.332C687.801 201.699 688.203 201.655 678.312 196.672C671.527 193.254 660.106 189.204 649 186.277C641.243 184.234 636.656 183.718 624 183.466C615.475 183.297 607.375 183.379 606 183.648ZM634 193.471C639.775 194.259 648.341 196.033 653.035 197.413C660.943 199.739 681.53 208.237 683.254 209.886C683.668 210.283 683.435 211.39 682.736 212.346C681.546 213.974 681.048 213.898 674.982 211.162C640.164 195.463 612.172 193.192 589.088 204.192C580.729 208.175 571.421 217.334 567.431 225.5C564.785 230.917 564.5 232.472 564.5 241.5C564.5 250.58 564.77 252.033 567.436 257.294C571.215 264.753 577.28 270.282 586.473 274.647C593.403 277.938 594.05 278.065 597.944 276.899C601.651 275.788 602.347 275.867 604.785 277.68C610.522 281.944 607.66 290.487 600.723 289.809C598.43 289.585 596.937 288.566 595.277 286.095C593.71 283.762 591.199 281.962 587.302 280.378C575.396 275.539 566.382 267.422 561.858 257.467C559.965 253.302 559.593 250.716 559.55 241.448C559.501 230.604 559.572 230.25 563.336 222.635C568.051 213.095 575.359 205.619 584.716 200.763C592.82 196.558 596.503 195.321 606.183 193.553C615.912 191.776 621.451 191.76 634 193.471ZM778 220V228H786.5H795V220V212H786.5H778V220ZM603 239C603 246.333 602.722 248 601.5 248C600.3 248 600 246.5 600 240.5C600 234.5 599.7 233 598.5 233C597.675 233 597 232.325 597 231.5C597 230.5 598 230 600 230H603V239ZM622.6 230.765C626.077 233.087 627.159 241.9 624.443 245.777C622.354 248.76 616.092 248.864 613.463 245.959C610.62 242.818 610.895 234.313 613.918 231.865C616.254 229.974 620.592 229.425 622.6 230.765ZM638.5 238.917C638.5 244.762 638.118 247.461 637.25 247.75C636.323 248.059 636 246.205 636 240.583C636 233.667 635.824 233 634 233C632.853 233 632 232.333 632 231.437C632 230.275 632.836 229.954 635.25 230.187L638.5 230.5V238.917ZM616.464 233.403C615.13 234.378 614.545 236.016 614.545 238.776C614.545 243.203 616.304 246 619.087 246C622.999 246 624.565 236.726 621.171 233.655C618.955 231.649 618.869 231.644 616.464 233.403ZM704 258.5C704 266.278 703.728 268 702.5 268C701.284 268 701 266.389 701 259.5C701 252.611 700.716 251 699.5 251C698.675 251 698 250.55 698 250C698 249.45 699.35 249 701 249H704V258.5ZM690 259C690 266.333 689.722 268 688.5 268C687.3 268 687 266.5 687 260.5C687 254.5 686.7 253 685.5 253C684.675 253 684 252.325 684 251.5C684 250.5 685 250 687 250H690V259ZM778.99 256.51L772.538 263.02L779.537 270.019L786.536 277.018L793.42 270.081L800.304 263.143L793.993 256.572C790.523 252.957 787.179 250 786.563 250C785.946 250 782.539 252.93 778.99 256.51ZM675.595 253.105C676.91 254.558 677.5 256.693 677.5 260C677.5 265.97 675.115 269 670.418 269C666.156 269 663 265.171 663 260C663 252.268 670.916 247.935 675.595 253.105ZM654 259.083C654 264.303 653.671 266.058 652.75 265.754C651.997 265.506 651.381 263.089 651.2 259.671C650.981 255.521 650.511 254 649.45 254C648.653 254 648 253.55 648 253C648 252.45 649.35 252 651 252H654V259.083ZM668.115 254.632C664.145 257.412 666.006 267 670.515 267C672.397 267 675 263.06 675 260.212C675 254.933 671.609 252.185 668.115 254.632ZM639 257.5C639 259.056 638.433 260 637.5 260C636.675 260 636 259.325 636 258.5C636 257.675 635.55 257 635 257C634.45 257 634 256.55 634 256C634 255.45 635.125 255 636.5 255C638.5 255 639 255.5 639 257.5ZM527 260.783C527 261.213 525.456 264.476 523.57 268.033C513.466 287.081 513.485 306.096 523.628 326.25L527.025 333H523.598C520.551 333 519.876 332.474 517.504 328.25C511.914 318.291 509.631 309.446 509.568 297.5C509.503 285.301 510.544 281.04 516.833 267.751C520.298 260.427 520.679 260.001 523.75 260.001C525.538 260 527 260.352 527 260.783ZM691 279.469C691 283.03 690.695 283.82 689.5 283.362C688.645 283.034 688 281.542 688 279.893C688 278.302 687.55 277 687 277C686.45 277 686 276.55 686 276C686 275.45 687.125 275 688.5 275C690.794 275 691 275.369 691 279.469ZM704.22 283.75C704.122 294.198 704.2 293.849 702.468 291.559C701.538 290.328 701 287.308 701 283.309C701 278.368 700.675 277 699.5 277C698.675 277 698 276.521 698 275.937C698 275.344 699.395 275.012 701.149 275.187L704.297 275.5L704.22 283.75ZM598.389 281.43C597.393 284.025 598.788 286.169 601.246 285.82C602.898 285.585 603.5 284.833 603.5 283C603.5 281.167 602.898 280.415 601.246 280.18C599.893 279.988 598.75 280.488 598.389 281.43ZM540.43 284.886C540.731 285.374 540.088 286.005 539.001 286.29C536.602 286.917 534.921 290.925 535.707 294.143C536.338 296.729 538.822 300 540.155 300C542.176 300 545.001 295.786 545.015 292.75C545.027 290.284 545.264 289.862 546 291C547.685 293.607 547.086 297.005 544.483 299.608C541.804 302.287 539.13 302.193 535.834 299.302C533.784 297.505 533.819 288.128 535.885 285.639C537.369 283.85 539.565 283.487 540.43 284.886ZM637.545 287.455C638.895 288.805 640 290.309 640 290.798C640 291.287 643.712 293.137 648.25 294.909C669.196 303.089 679.233 315.179 680.673 333.964C682.131 352.982 672.285 369.731 654.569 378.37C644.998 383.036 637.121 384.877 623.5 385.629C605.456 386.625 583.355 381.62 564.302 372.222C556.357 368.303 555.229 367.44 556.05 365.907C556.932 364.259 557.524 364.372 564.25 367.472C573.921 371.928 589.657 377.335 599.5 379.582C611.19 382.251 629.066 382.071 639.299 379.181C655.763 374.532 666.588 366.648 672.219 355.202C675.325 348.891 675.5 347.947 675.5 337.518C675.5 327.476 675.252 325.995 672.701 320.801C667.742 310.703 657.773 302.93 644.083 298.486C639.894 297.127 638.252 296.986 636.846 297.864C635.846 298.489 633.697 299 632.07 299C626.566 299 623.89 291.11 628 287C630.703 284.297 634.572 284.482 637.545 287.455ZM629.659 290.446C628.332 293.905 631.968 297.101 634.675 294.855C635.457 294.206 635.962 292.736 635.798 291.588C635.426 288.984 630.567 288.08 629.659 290.446ZM763.571 297.75C762.835 299.813 761.083 304.079 759.68 307.23C758.276 310.382 757.52 313.203 757.999 313.5C758.479 313.796 764.562 313.734 771.517 313.363L784.162 312.687L783.831 306.841C783.649 303.627 783.824 300.997 784.219 300.998C784.615 300.999 788.44 303.244 792.719 305.987C796.999 308.729 802.844 312.442 805.71 314.237C808.575 316.031 810.92 317.725 810.921 318C810.922 318.512 786.528 335.23 784.9 335.833C784.405 336.017 784 333.429 784 330.083C784 324.982 783.717 323.989 782.25 323.931C781.288 323.894 771.837 323.852 761.25 323.839C750.663 323.826 742 323.606 742 323.35C742 323.094 744.741 316.386 748.092 308.442L754.184 294H759.548H764.911L763.571 297.75ZM543.082 309C543.587 309 544 312.825 544 317.5C544 322.5 543.588 326 543 326C542.424 326 542 322.872 542 318.617C542 311.956 541.794 311.179 539.899 310.684C538.657 310.359 538.086 309.671 538.501 308.999C538.887 308.375 539.869 308.119 540.683 308.432C541.497 308.744 542.577 309 543.082 309ZM558 317.5C558 322.5 557.588 326 557 326C556.423 326 556 322.85 556 318.55C556 312.509 555.669 310.907 554.25 310.08C552.754 309.209 552.899 309.056 555.25 309.03L558 309V317.5ZM578.427 310.57C581.452 313.595 581.694 321.254 578.872 324.655C577.445 326.374 571.922 326.394 569.59 324.689C566.992 322.79 566.265 314.771 568.395 311.52C570.339 308.552 575.885 308.027 578.427 310.57ZM570.557 312.223C567.35 316.801 569.424 324 573.949 324C576.71 324 578.47 321.157 578.358 316.878C578.186 310.302 573.754 307.658 570.557 312.223ZM593 320C593 323.333 592.556 326 592 326C590.915 326 590.619 318.156 591.607 315.582C592.672 312.807 593 313.849 593 320ZM606.783 321.423C607.39 322.756 608.925 324.044 610.193 324.287C611.95 324.622 611.733 324.76 609.285 324.864C606.19 324.995 604 323.006 604 320.066C604 318.143 605.656 318.95 606.783 321.423ZM605 341.106C605 346.369 604.592 350 604 350C603.421 350 603 346.802 603 342.406C603 335.668 602.776 334.754 601.011 334.293C598.383 333.606 599.153 332.537 602.406 332.356L605 332.212V341.106ZM619 341C619 346.333 618.593 350 618 350C617.421 350 617 346.802 617 342.406C617 335.381 616.832 334.766 614.75 334.195C612.659 333.621 612.713 333.529 615.5 332.907C617.15 332.538 618.612 332.183 618.75 332.118C618.888 332.053 619 336.05 619 341ZM637.961 332.979C642.415 335.363 642.465 346.61 638.032 348.983C631.263 352.605 625.693 346.567 627.978 338.082C629.46 332.578 633.425 330.551 637.961 332.979ZM762.487 335.043C761.624 337.76 763.075 339.268 766.135 338.835C767.902 338.585 768.5 337.868 768.5 336C768.5 332.56 763.526 331.768 762.487 335.043ZM631.557 336.223C628.317 340.848 630.43 348 635.036 348C637.443 348 639 345.109 639 340.637C639 334.672 634.509 332.008 631.557 336.223ZM307.75 471.578C311.215 472.985 311.615 473.982 309.958 477.078C309.15 478.588 308.504 478.805 307.085 478.045C301.066 474.824 290.593 474.978 287.234 478.337C285.159 480.413 285.376 485.07 287.625 486.717C288.656 487.473 292.65 489.007 296.5 490.127C310.821 494.291 313 496.123 313 504C313 512.624 307.179 517 295.71 517C288.942 517 280.907 514.798 278.915 512.397C278.004 511.3 277.982 510.335 278.825 508.484L279.945 506.027L284.621 508.513C292.497 512.701 303.825 511.674 306.154 506.561C308.088 502.316 305.394 499.702 296.34 497.039C286.72 494.211 281.395 491.606 280.033 489.062C279.465 488 279 485.084 279 482.582C279 479.017 279.603 477.357 281.784 474.916C286.674 469.443 298.69 467.899 307.75 471.578ZM355.5 472.972C362.775 476.959 366.37 483.128 366.824 492.403C367.13 498.665 366.832 500.145 364.291 504.985C360.267 512.649 354.259 516.307 344.817 516.841C335.928 517.343 330.472 515.32 325.155 509.552C320.708 504.728 319.003 499.983 319.028 492.5C319.087 474.434 338.856 463.849 355.5 472.972ZM859.071 470.014C864.516 471.046 870.981 474.615 870.993 476.595C870.997 477.197 870.153 478.457 869.117 479.394C867.333 481.009 867.036 480.964 863.477 478.549C860.553 476.564 858.479 476.001 854.11 476.004C845.078 476.01 839.064 480.62 836.988 489.13C833.453 503.617 847.588 515.377 861.532 509.551L865 508.102V500.551V493H868.036H871.072L870.786 502.697L870.5 512.393L867.138 514.354C862.874 516.841 850.849 517.751 845.387 515.999C839.81 514.211 835.454 510.629 832.272 505.216C828.428 498.677 828.31 488.601 832 482.089C835.237 476.378 840.713 472.036 846.713 470.422C852.753 468.798 852.675 468.801 859.071 470.014ZM915.991 472.385C928.774 478.716 932.579 496.57 923.632 508.239C919.356 513.816 914.028 516.373 905.698 516.846C896.938 517.343 891.447 515.293 886.155 509.552C879.262 502.074 877.938 491.175 882.794 481.88C888.799 470.385 903.476 466.187 915.991 472.385ZM1138.84 471.19C1143.28 472.55 1148.62 477.366 1151.28 482.405C1152.89 485.461 1153.45 488.296 1153.47 493.578C1153.5 499.739 1153.11 501.291 1150.48 505.547C1148.81 508.237 1145.52 511.795 1143.16 513.453C1139.53 516.004 1137.74 516.525 1131.52 516.839C1122.87 517.276 1118.15 515.951 1113.35 511.739C1107.8 506.859 1105.56 501.627 1105.56 493.5C1105.55 475.611 1120.51 465.578 1138.84 471.19ZM409 472.97V475.94L396.322 476.22L383.644 476.5L383.734 482.75C383.783 486.188 383.863 489.675 383.912 490.5C383.985 491.742 385.991 492 395.566 492H407.133L406.816 494.75L406.5 497.5L395.25 497.783L384 498.066L383.893 502.783C383.834 505.377 383.667 508.85 383.523 510.5C383.378 512.15 383.202 514.288 383.13 515.25C383.037 516.499 382.141 517 380 517H377V493.5V470H393H409V472.97ZM450 473V476H442.521H435.041L434.771 496.25L434.5 516.5L431.25 516.813L428 517.127V496.563V476H420.5H413V473V470H431.5H450V473ZM465.437 488.793L471.529 507.086L475.895 493.793C483.821 469.657 483.731 469.842 487.28 470.194C490.364 470.499 490.393 470.558 496.383 488.91L502.393 507.321L508.524 488.91L514.654 470.5L517.827 470.187C520.074 469.965 521 470.296 521 471.32C521 472.116 517.627 482.607 513.505 494.634C509.383 506.66 506.008 516.612 506.005 516.75C505.987 517.64 500.054 516.764 499.232 515.75C498.675 515.063 495.862 507.3 492.98 498.5C490.098 489.7 487.542 482.154 487.299 481.731C487.057 481.308 484.196 488.705 480.942 498.168C477.688 507.631 474.625 515.775 474.135 516.265C473.645 516.755 471.993 517.009 470.465 516.828C467.794 516.513 467.406 515.677 460.343 495C456.304 483.175 452.735 472.683 452.411 471.684C451.903 470.115 452.334 469.912 455.584 470.184L459.345 470.5L465.437 488.793ZM557.862 492.583C563.438 505.004 568 515.607 568 516.146C568 516.686 566.545 516.986 564.767 516.813C561.922 516.538 561.205 515.812 558.785 510.75L556.034 505H544.253H532.472L529.82 511C527.406 516.463 526.893 517 524.084 517C522.281 517 521.002 516.481 521.005 515.75C521.008 515.063 523.06 510 525.567 504.5C528.073 499 531.724 490.675 533.679 486C539.992 470.908 540.6 470 544.382 470H547.723L557.862 492.583ZM603.573 472.474C609.79 475.573 612.001 479.164 611.996 486.154C611.992 492.278 609.447 497.384 605.502 499.181C604.126 499.808 603 500.756 603 501.288C603 501.82 605.25 505.29 608 509C610.75 512.71 613 516.054 613 516.433C613 516.811 611.331 516.981 609.29 516.81C605.943 516.53 605.089 515.797 600.54 509.294L595.5 502.088L588.794 502.044L582.088 502L581.794 509.25L581.5 516.5H578.5H575.5L575.232 493.25L574.963 470H586.785C597.358 470 599.132 470.261 603.573 472.474ZM655 473V476H642H629V482.968V489.937L640.75 490.218L652.5 490.5V493V495.5L640.707 495.782L628.914 496.064L629.207 503.282L629.5 510.5L642.75 510.779L656 511.058V514.053V517.048L639.25 516.774L622.5 516.5L622.202 494.598C622.037 482.551 622.136 472.089 622.42 471.348C622.824 470.295 626.447 470 638.969 470H655V473ZM705.953 472.458C710.604 476.666 708.794 485.11 702.394 489.066C700.527 490.219 699 491.479 699 491.866C699 493.289 709.977 503.357 710.725 502.62C711.151 502.2 711.981 500.453 712.569 498.739C713.739 495.324 714.811 494.596 716.805 495.86C717.852 496.523 717.707 497.751 716.069 502.06L714.028 507.433L717.17 510.676C719.852 513.442 720.12 514.151 718.998 515.502C717.825 516.916 717.328 516.741 714.364 513.868C711.257 510.857 710.928 510.755 709.235 512.287C698.041 522.418 677.058 514.763 680.897 501.949C681.949 498.439 687.862 492 690.035 492C691.614 492 691.15 490.311 688.5 486.405C687.125 484.379 686 481.494 686 479.995C686 476.893 689.255 472.272 692.388 470.926C695.596 469.547 703.755 470.469 705.953 472.458ZM772.161 481C774.761 486.775 779.389 496.949 782.444 503.608C785.5 510.267 788 516.005 788 516.358C788 516.711 786.412 517 784.471 517C781.114 517 780.816 516.708 778.341 511L775.739 505H763.533H751.327L748.739 511C746.378 516.471 745.879 517 743.075 517C741.384 517 740 516.519 740 515.932C740 515.344 742.76 508.707 746.134 501.182C749.508 493.657 753.793 483.954 755.656 479.619C760.073 469.344 759.64 469.844 763.81 470.195C767.378 470.495 767.507 470.662 772.161 481ZM801.424 473.446C801.78 475.342 801.995 484.455 801.902 493.696L801.734 510.5L814.367 510.78C821.315 510.934 826.994 511.384 826.986 511.78C826.979 512.176 826.698 513.524 826.363 514.775C825.758 517.033 825.643 517.048 810.127 516.775L794.5 516.5L794.232 493.25L793.963 470H797.37C800.462 470 800.837 470.319 801.424 473.446ZM964.171 471.031C976.324 474.406 979.47 489.254 969.905 498.087L966.021 501.674L971.01 508.917C973.755 512.901 976 516.376 976 516.64C976 516.905 974.313 516.981 972.25 516.81C968.821 516.527 968.086 515.879 963.665 509.25L958.829 502H951.915H945V509.5V517H941.5H938V493.5V470L949.25 470.006C955.438 470.009 962.152 470.47 964.171 471.031ZM993 493.5V517H989.5H986V493.5V470H989.5H993V493.5ZM1038 473V476H1030.52H1023.04L1022.77 496.25L1022.5 516.5L1019.25 516.813L1016 517.127V496.563V476H1008H1000V473V470H1019H1038V473ZM1058.73 482.25C1062.7 488.988 1067.02 496.245 1068.33 498.378L1070.7 502.255L1079.93 486.128C1088.35 471.392 1089.39 470 1091.92 470H1094.69L1095.34 484.25C1096.29 505.023 1096.16 515.784 1094.94 516.535C1094.36 516.894 1092.79 516.912 1091.44 516.575L1089 515.962L1088.97 499.731C1088.93 480.965 1089.69 481.017 1079.34 499.069C1074.16 508.106 1072.01 510.992 1070.5 510.974C1069 510.957 1066.51 507.554 1060.5 497.31L1052.5 483.67L1052.23 500.396L1051.95 517.123L1048.73 516.812L1045.5 516.5L1045.23 494.524C1045.08 482.437 1045.18 471.974 1045.45 471.274C1045.72 470.573 1047.19 470 1048.72 470C1051.22 470 1052.24 471.248 1058.73 482.25ZM695.028 474.123C691.98 475.327 691.035 476.739 691.015 480.115C690.998 483.096 694.445 488 696.557 488C698.496 488 703.71 482.969 704.445 480.389C705.659 476.128 699.807 472.234 695.028 474.123ZM333.319 478.884C318.756 489.433 326.917 512.085 344.791 510.73C350.412 510.304 353.916 508.332 357.438 503.615C360.422 499.618 360.404 487.367 357.408 483.323C353.612 478.2 349.285 476 343.002 476C338.305 476 336.599 476.508 333.319 478.884ZM582 486V496H590.577C598.723 496 599.301 495.853 602.077 493.077C604.238 490.916 605 489.204 605 486.511C605 478.786 600.905 476 589.55 476H582V486ZM898 476.722C884.446 481.815 883.146 502.279 895.966 508.75C903.74 512.674 912.098 511.238 917.27 505.091C926.863 493.69 919.075 475.855 904.602 476.079C901.796 476.122 898.825 476.412 898 476.722ZM945 485.813V495.824L949 496.5C953.629 497.282 960.341 496.357 964.142 494.412C969.367 491.739 970.005 483.233 965.31 478.82C963.185 476.823 961.6 476.451 953.921 476.151L945 475.801V485.813ZM1120.7 478.313C1105.6 487.451 1112.01 511 1129.6 511C1141 511 1149.18 499.794 1146.1 488.386C1144.95 484.099 1139.98 478.322 1136.21 476.889C1131.83 475.225 1124.72 475.878 1120.7 478.313ZM543.786 478.565C542.913 480.023 535 498.831 535 499.449C535 500.18 552.504 500.163 553.236 499.431C553.549 499.117 552.256 495.405 550.361 491.181C548.466 486.956 546.338 482.179 545.631 480.565C544.925 478.951 544.094 478.051 543.786 478.565ZM758.787 488.319C755.973 494.793 754.609 499.041 755.322 499.104C755.97 499.162 760.228 499.341 764.785 499.502C774.463 499.845 774.221 500.959 767.58 486.609L763.429 477.639L758.787 488.319ZM689.841 496.979C685.453 500.596 684.42 503.978 686.485 507.97C689.33 513.473 699.58 514.478 705.483 509.834L708.17 507.721L701.362 500.861C697.617 497.087 694.307 494 694.005 494C693.703 494 691.829 495.341 689.841 496.979ZM1014.73 549C1013.33 550.1 1011.85 551 1011.44 551C1011.03 551 1011.5 550.1 1012.5 549C1013.5 547.9 1014.98 547 1015.79 547C1016.74 547 1016.36 547.713 1014.73 549ZM744.777 565.832C745.016 577.993 744.839 580 743.527 580C742.227 580 742 577.829 742 565.417C742 554.195 742.288 550.929 743.25 551.249C744.154 551.549 744.577 555.59 744.777 565.832ZM390.412 553.605C393.418 554.758 390.892 555.947 386.668 555.368C383.4 554.92 382.099 555.175 381.019 556.477C378.966 558.95 380.753 561.077 386.495 562.998C392.378 564.966 394.065 567.725 391.645 571.419C389.485 574.716 384.442 575.629 379.59 573.602C377.536 572.744 376.141 571.581 376.489 571.018C376.915 570.329 377.734 570.322 378.995 570.997C383.517 573.417 390.928 571.285 389.797 567.89C389.581 567.243 386.726 565.765 383.452 564.607C378.263 562.77 377.458 562.136 377.175 559.662C376.693 555.455 379.42 553 384.573 553C386.918 553 389.546 553.272 390.412 553.605ZM415.077 555.923C417.47 558.316 418 559.69 418 563.5C418 567.291 417.468 568.686 415.128 571.026C411.929 574.224 408.185 575.514 404.662 574.63C396.06 572.471 393.173 561.736 399.495 555.414C401.419 553.49 402.95 553 407.031 553C411.36 553 412.607 553.453 415.077 555.923ZM438 554C438 554.556 435.333 555 432 555H426V559V563H431.5C435.33 563 437 563.392 437 564.293C437 565.191 435.398 565.572 431.75 565.543L426.5 565.5L426.193 569.75C425.983 572.644 425.425 574 424.443 574C423.277 574 423 571.981 423 563.5V553H430.5C434.833 553 438 553.422 438 554ZM458 554C458 554.55 456.2 555 454 555H450V564.5C450 576.785 448.168 576.992 447.788 564.75L447.5 555.5L443.75 555.19C436.379 554.58 440.167 553 449 553C454.333 553 458 553.407 458 554ZM464.5 561C465.965 565.4 467.486 569 467.879 569C468.272 569 469.725 565.513 471.107 561.252C472.576 556.725 474.233 553.386 475.094 553.22C476.137 553.02 477.409 555.471 479.454 561.622L482.341 570.308L485.339 561.654C487.235 556.184 488.867 553 489.776 553C490.567 553 491.007 553.563 490.754 554.25C490.5 554.938 489.042 559.325 487.513 564C483.068 577.591 481.853 577.785 478.004 565.514C476.702 561.361 475.269 558.331 474.821 558.779C474.372 559.228 472.95 562.723 471.661 566.547C468.238 576.698 466.935 576.263 462.679 563.553C460.081 555.796 459.502 553 460.49 553C461.283 553 462.93 556.284 464.5 561ZM506.956 560.25C513.268 574.315 513.16 574 511.674 574C510.93 574 509.808 572.875 509.182 571.5C508.156 569.247 507.463 569 502.182 569C496.901 569 496.208 569.247 495.182 571.5C494.555 572.875 493.401 574 492.616 574C491.586 574 492.482 571.085 495.845 563.501C498.957 556.483 501.031 553.002 502.101 553.001C503.123 553.001 504.878 555.621 506.956 560.25ZM531.657 555.566C533.736 557.645 534.104 558.737 533.592 561.316C533.245 563.067 532.087 565.175 531.019 566C529.097 567.484 529.097 567.526 531.016 570C533.295 572.938 533.481 574 531.716 574C531.009 574 529.634 572.65 528.659 571C527.167 568.473 526.265 568 522.943 568C519.229 568 519 568.174 519 571C519 572.65 518.55 574 518 574C517.397 574 517 569.833 517 563.5V553H523.045C528.202 553 529.468 553.377 531.657 555.566ZM554 554C554 554.556 551.333 555 548 555H542V558.448V561.895L547.25 562.198C550.138 562.364 552.5 562.95 552.5 563.5C552.5 564.05 550.138 564.636 547.25 564.802L542 565.105V568.552V572H548.5C552.167 572 555 572.436 555 573C555 573.583 551.667 574 547 574H539V563.5V553H546.5C550.833 553 554 553.422 554 554ZM583 554C583 554.556 580.333 555 577 555H571V558.448V561.895L576.25 562.198C583.144 562.595 582.986 564.365 576 565C570.667 565.485 570.5 565.591 570.5 568.5C570.5 571.482 570.538 571.502 576.75 571.798C585.563 572.218 584.551 574 575.5 574H568V563.5V553H575.5C579.833 553 583 553.422 583 554ZM597.186 561.168L603.5 569.337L603.79 561.168C604.017 554.784 604.402 553 605.549 553C606.777 553 606.937 554.679 606.524 563.245C606.253 568.879 605.603 573.632 605.079 573.807C604.556 573.981 601.286 570.659 597.814 566.425L591.5 558.725L591.208 566.363C590.983 572.253 590.582 574 589.458 574C588.273 574 588 572.032 588 563.5C588 555.041 588.279 553 589.436 553C590.226 553 593.714 556.676 597.186 561.168ZM628.557 554.418C630.996 556.202 629.869 557.535 627.151 556.081C619.694 552.09 611.5 560.265 615.4 567.806C617.035 570.968 618.782 572 622.5 572C626.758 572 628 570.959 628 567.393C628 565.044 628.461 564 629.5 564C630.584 564 631 565.113 631 568.016C631 571.596 630.632 572.208 627.611 573.648C619.996 577.28 612 572.003 612 563.346C612 557.026 615.981 553 622.232 553C624.644 553 627.491 553.638 628.557 554.418ZM640 563.5C640 572.167 639.738 574 638.5 574C637.262 574 637 572.167 637 563.5C637 554.833 637.262 553 638.5 553C639.738 553 640 554.833 640 563.5ZM654.546 560.616C658.734 565.972 660.558 567.678 660.695 566.366C661.833 555.488 662.275 553 663.072 553C663.584 553 664 557.709 664 563.5C664 571.236 663.671 573.999 662.75 573.994C662.063 573.991 658.8 570.504 655.5 566.244L649.5 558.5L649.208 566.25C648.982 572.239 648.585 574 647.458 574C646.273 574 646 572.032 646 563.5C646 555.567 646.317 553 647.296 553C648.009 553 651.272 556.427 654.546 560.616ZM686 554C686 554.556 683.333 555 680 555H674V558.5V562H679C682.778 562 684 562.367 684 563.5C684 564.633 682.778 565 679 565H674V568.5V572H680C683.333 572 686 572.444 686 573C686 573.578 682.833 574 678.5 574H671V563.5V553H678.5C682.833 553 686 553.422 686 554ZM706 554C706 554.556 703.333 555 700 555H694V558.448C694 561.895 694.001 561.896 699.171 562.198C706.578 562.631 706.927 565 699.583 565H694V568.5V572H700.5C704.167 572 707 572.436 707 573C707 573.583 703.667 574 699 574H691V563.5V553H698.5C702.833 553 706 553.422 706 554ZM725.663 554.477C729.612 557.242 729.41 563.481 725.272 566.534C724.099 567.399 724.207 567.994 725.936 570.191C728.333 573.238 728.489 574 726.716 574C726.009 574 724.634 572.65 723.659 571C722.167 568.473 721.265 568 717.943 568C714.229 568 714 568.174 714 571C714 572.65 713.55 574 713 574C712.397 574 712 569.833 712 563.5V553H717.777C721.254 553 724.395 553.588 725.663 554.477ZM773.55 563.323C775.998 568.725 778 573.338 778 573.573C778 575.116 775.116 573.551 774.182 571.5C773.168 569.275 772.439 569 767.547 569C762.452 569 761.938 569.219 760.5 572C758.665 575.548 756.523 576.035 757.356 572.716C757.672 571.46 759.756 566.479 761.988 561.647C764.815 555.529 766.51 552.959 767.574 553.181C768.414 553.357 771.103 557.92 773.55 563.323ZM784 560.277C784 569.558 785.589 572.244 790.822 571.805C795.543 571.409 796.966 568.626 796.985 559.75C796.994 555.926 797.434 553 798 553C799.092 553 799.412 567.763 798.379 570.455C796.595 575.104 787.165 576.05 783.457 571.952C780.855 569.077 779.937 553 782.375 553C783.726 553 784 554.226 784 560.277ZM820 554C820 554.55 818.425 555 816.5 555H813V564.5C813 572.278 812.728 574 811.5 574C810.272 574 810 572.278 810 564.5V555H806.5C804.575 555 803 554.55 803 554C803 553.412 806.5 553 811.5 553C816.5 553 820 553.412 820 554ZM841.077 555.923C846.817 561.664 843.762 572.795 835.976 574.505C832.391 575.293 826.872 573.621 824.536 571.04C821.914 568.142 821.427 561.779 823.552 558.181C825.782 554.406 828.298 553.154 833.827 553.068C837.327 553.013 838.712 553.559 841.077 555.923ZM856.072 560.515C861.086 569.025 860.596 569.108 866.323 558.762C871.032 550.256 872 551.064 872 563.5C872 572.484 871.768 574 870.391 574C869.021 574 868.838 572.883 869.16 566.5C869.368 562.375 869.45 559 869.342 559C869.233 559 867.511 561.69 865.514 564.977C863.517 568.265 861.495 571.194 861.02 571.488C860.546 571.781 858.434 569.204 856.329 565.76L852.5 559.5L852.206 566.75C851.981 572.296 851.57 574 850.456 574C849.274 574 849 572.026 849 563.5C849 550.525 849.95 550.124 856.072 560.515ZM893.12 563.75C896.624 571.268 897.505 574 896.427 574C895.619 574 894.445 572.875 893.818 571.5C892.792 569.247 892.099 569 886.818 569C881.537 569 880.844 569.247 879.818 571.5C878.691 573.973 875.325 575.162 876.281 572.75C880.157 562.971 885.562 552.962 886.834 553.208C887.664 553.369 890.493 558.112 893.12 563.75ZM915 553.94C915 554.456 913.313 555.019 911.25 555.19L907.5 555.5L907.214 565.25C907.056 570.612 906.51 575 906 575C905.49 575 904.944 570.612 904.786 565.25L904.5 555.5L900.75 555.19C893.379 554.58 897.167 553 906 553C910.95 553 915 553.423 915 553.94ZM921 563.441C921 569.323 920.563 574.152 920 574.5C919.356 574.898 919 571.177 919 564.059C919 557.353 919.394 553 920 553C920.603 553 921 557.147 921 563.441ZM944 553.761C944 554.179 940.835 558.454 936.967 563.261L929.934 572H936.967C940.989 572 944 572.428 944 573C944 573.593 940.333 574 935 574C930.05 574 926.016 573.663 926.035 573.25C926.055 572.837 929.165 568.675 932.947 564L939.824 555.5L932.912 555.206C922.752 554.774 924.432 553 935 553C939.95 553 944 553.342 944 553.761ZM962.682 563.405C965.057 568.853 967 573.465 967 573.655C967 573.845 966.397 574 965.661 574C964.924 574 963.808 572.875 963.182 571.5C962.156 569.247 961.463 569 956.182 569C950.901 569 950.208 569.247 949.182 571.5C947.742 574.661 945.594 574.866 946.568 571.75C946.955 570.513 948.998 565.752 951.108 561.171C953.988 554.917 955.369 552.925 956.653 553.172C957.738 553.381 959.942 557.121 962.682 563.405ZM986.462 554.348C989.19 556.343 987.483 558.452 984.712 556.511C979.279 552.706 972 556.708 972 563.5C972 568.258 975.634 572 980.255 572C982.095 572 984.101 571.499 984.713 570.887C986.36 569.24 988.423 570.786 986.948 572.563C984.983 574.931 979.555 575.357 975.553 573.458C967.892 569.823 966.758 560.126 973.367 554.772C975.957 552.674 983.824 552.42 986.462 554.348ZM995.674 563.502C995.815 572.001 995.577 574 994.424 574C993.282 574 993 571.919 993 563.5C993 555.765 993.329 553.001 994.25 553.002C995.159 553.004 995.547 555.865 995.674 563.502ZM1019.6 556.4C1024.19 560.988 1024.4 566.757 1020.13 571.026C1014.99 576.163 1009.01 576.163 1003.87 571.026C1001.58 568.737 1001 567.275 1001.02 563.827C1001.06 557.069 1005.23 553.087 1012.35 553.03C1015.42 553.006 1016.89 553.691 1019.6 556.4ZM1036.5 560.624L1042.5 568.175L1042.79 560.588C1043.02 554.741 1043.42 553 1044.54 553C1045.73 553 1046 554.968 1046 563.5C1046 571.237 1045.67 573.998 1044.75 573.993C1044.06 573.989 1040.8 570.6 1037.5 566.463L1031.5 558.94L1031.25 563.22C1030.4 577.443 1028 577.651 1028 563.5C1028 555.748 1028.33 553.009 1029.25 553.036C1029.94 553.056 1033.2 556.47 1036.5 560.624ZM401.463 557.278C395.743 562.198 399.256 572 406.74 572C411.285 572 413.588 570.621 414.787 567.182C416.176 563.196 415.207 559.308 412.244 556.977C408.915 554.358 404.722 554.475 401.463 557.278ZM519.721 555.75C519.503 556.163 519.233 558.413 519.121 560.75L518.919 565H523.388C530.409 565 533.629 559.955 528.777 556.557C526.491 554.955 520.428 554.415 519.721 555.75ZM714.667 555.667C714.3 556.033 714 558.307 714 560.719V565.105L719.231 564.802C723.902 564.532 724.563 564.209 725.413 561.78C726.753 557.952 723.965 555 719.012 555C716.989 555 715.033 555.3 714.667 555.667ZM827.455 557.455C822.236 562.673 825.697 572.03 832.823 571.968C837.067 571.931 839.529 570.369 840.86 566.868C844.082 558.394 833.762 551.147 827.455 557.455ZM1008.02 556.284C1002.8 558.924 1001.98 565.177 1006.25 569.75C1010.77 574.591 1020 571.072 1020 564.509C1020 559.787 1019.16 558.137 1015.93 556.463C1012.49 554.687 1011.23 554.659 1008.02 556.284ZM954.219 560.486C952.999 562.998 952 565.491 952 566.027C952 566.562 954.025 567 956.5 567C958.975 567 961 566.833 961 566.628C961 566.424 959.974 563.931 958.719 561.088L956.438 555.919L954.219 560.486ZM499.636 561.283C498.736 563.639 498 565.889 498 566.283C498 566.678 500.025 567 502.5 567C504.975 567 507 566.787 507 566.527C507 565.395 502.538 557 501.937 557C501.571 557 500.536 558.928 499.636 561.283ZM765.02 560.96C763.909 563.138 763 565.388 763 565.96C763 566.532 765.025 567 767.5 567C769.975 567 772 566.812 772 566.583C772 565.581 768.021 557 767.556 557C767.272 557 766.132 558.782 765.02 560.96ZM884.047 561.627C882.921 564.172 882 566.422 882 566.627C882 566.832 884.025 567 886.5 567C888.975 567 891 566.532 891 565.96C891 564.718 887.147 557 886.526 557C886.288 557 885.173 559.082 884.047 561.627ZM1370.53 677.711C1372.8 683.674 1380.09 691.016 1386.25 693.548C1388.86 694.621 1390.99 695.776 1391 696.114C1391 696.452 1388.88 697.538 1386.29 698.527C1380.33 700.805 1372.98 708.092 1370.45 714.246C1369.38 716.857 1368.22 718.994 1367.89 718.996C1367.55 718.998 1366.46 716.88 1365.47 714.289C1363.2 708.326 1355.91 700.984 1349.75 698.452C1347.14 697.379 1345.01 696.224 1345 695.886C1345 695.548 1347.12 694.462 1349.71 693.473C1355.67 691.195 1363.02 683.908 1365.55 677.754C1366.62 675.143 1367.78 673.006 1368.11 673.004C1368.45 673.002 1369.54 675.12 1370.53 677.711Z" fill="black"/>
</svg>
